# xmcd
#
# Track frame offsets:
#	150
#	21310
#	45727
#	60882
#	78232
#	94290
#	118240
#	139850
#	157075
#	173720
#	190937
#
# Disc length: 2858 seconds
#
# Revision: 0
# Processed by: cddbd v1.4PL0 Copyright (c) Steve Scherf et al.
# Submitted via: audiograbber 1.80
#
DISCID=910b280b
DTITLE=Della Manley - Ashes on the Window Sill
DYEAR=1900
DGENRE=
TTITLE0=City lights
TTITLE1=The Garden
TTITLE2=Te Amare
TTITLE3=Little Children
TTITLE4=BitterSweet
TTITLE5=Angel
TTITLE6=The Dream
TTITLE7=Ashes on the Window Sill
TTITLE8=Ribbon
TTITLE9=City Lights (reprise)
TTITLE10=I wish you would
EXTD=
EXTT0=
EXTT1=
EXTT2=
EXTT3=
EXTT4=
EXTT5=
EXTT6=
EXTT7=
EXTT8=
EXTT9=
EXTT10=
PLAYORDER=
